<svg xmlns="http://www.w3.org/2000/svg" xmlns:xlink="http://www.w3.org/1999/xlink" width="260px" height="46px" viewBox="0 0 260 46"><title>Group 22</title><defs><polygon id="path-1" points="0.0470704507 0.1719657 32.8029259 0.1719657 32.8029259 31.492423 0.0470704507 31.492423"></polygon><polygon id="path-3" points="0.123672633 0.328795522 30.5397199 0.328795522 30.5397199 41.6474351 0.123672633 41.6474351"></polygon><polygon id="path-5" points="0 45.8517034 260 45.8517034 260 1.04208417 0 1.04208417"></polygon></defs><g id="ESCRITORIO" stroke="none" stroke-width="1" fill="none" fill-rule="evenodd"><g id="HOME" transform="translate(-50.000000, -241.000000)"><g id="Group-22" transform="translate(50.000000, 241.000000)"><path d="M218.210455,41.6382985 C217.406042,36.250203 216.60163,30.8617458 215.797577,25.4736503 C215.770595,25.4700338 215.743613,25.4664174 215.716632,25.462801 C215.277011,26.5361528 214.83703,27.6087812 214.398848,28.6824946 C212.682816,32.8847679 210.965704,37.0863179 209.256867,41.2914844 C209.146422,41.5630771 209.019429,41.693268 208.699606,41.6827804 C207.880444,41.6552956 207.059842,41.6603586 206.24032,41.6802489 C205.937406,41.6878434 205.787388,41.5988796 205.673346,41.3023336 C203.929252,36.7702433 202.171488,32.243216 200.416243,27.7151038 C200.12664,26.9683142 199.834159,26.2226096 199.471885,25.491009 C198.667832,30.8783813 197.863779,36.2653919 197.059007,41.654934 L189.138277,41.654934 C190.809699,31.7636795 192.476085,21.9024412 194.150026,11.9956361 L194.681385,11.9956361 C196.925178,11.9956361 199.169331,12.0082936 201.413124,11.9839679 C201.832239,11.9797239 202.003123,12.1225723 202.143787,12.5019341 C203.908746,17.2575188 205.690614,22.0069556 207.468524,26.7582006 C207.516731,26.8876682 207.570335,27.0153276 207.659194,27.2384604 C207.8567,26.7126338 208.022907,26.2743244 208.186236,25.8345684 C209.853341,21.3502148 211.517929,16.8647762 213.195107,12.384039 C213.252309,12.2307031 213.433265,12.0137182 213.5581,12.0126333 C216.059838,11.9905732 218.561936,11.9963594 221.120874,11.9963594 C222.790498,21.872425 224.457964,31.7358331 226.132265,41.6382985 L218.210455,41.6382985 Z" id="Fill-1" fill="#000000"></path><g id="Group-5" transform="translate(227.174349, 10.941884)"><mask id="mask-2" fill="white"><use xlink:href="#path-1"></use></mask><g id="Clip-4"></g><path d="M8.38901002,15.8416883 C8.38937074,20.2451571 11.9435591,23.730153 16.4330982,23.7290697 C20.8952224,23.7276247 24.488008,20.2224029 24.5141184,15.8438554 C24.5399519,11.4822832 20.9071263,7.9387766 16.4136192,7.94310675 C11.9197515,7.94744484 8.3886493,11.4230501 8.38901002,15.8416883 M32.79398,15.8229071 C32.8455631,23.3227454 27.7550621,29.7831166 19.7300922,31.1765371 C16.0889699,31.8089579 12.5026774,31.5351858 9.11586373,29.9597321 C3.99361924,27.5770481 0.98159519,23.5466751 0.212897796,17.9495167 C-0.431350701,13.2596347 0.799791583,9.05156263 3.93806814,5.47446662 C6.31558317,2.76491752 9.35321844,1.17284974 12.8792705,0.526343095 C16.5214749,-0.141111815 20.1099319,0.0867908089 23.5079279,1.61745851 C29.2026373,4.18217567 32.2799519,8.64487744 32.7907335,14.8722895 C32.8167054,15.1872358 32.79398,15.5057938 32.79398,15.8229071" id="Fill-3" fill="#000000" mask="url(#mask-2)"></path></g><path d="M86.3945865,24.1767682 C87.3945628,24.1196095 88.3627763,24.1376977 89.3054338,23.9933539 C90.8712965,23.7542281 91.6861731,22.9058921 91.8953686,21.4783724 C92.1381522,19.8189621 91.3959281,18.5502566 89.8859238,18.0752608 C88.7537857,17.7192853 87.5876944,17.7898292 86.3945865,17.8111733 L86.3945865,24.1767682 Z M86.3328866,36.1525952 C87.1145402,36.1525952 87.8706376,36.1768334 88.6241794,36.1471688 C89.8187476,36.1001395 91.0133158,36.0238074 92.1388823,35.561835 C92.9515684,35.2286506 93.5557892,34.6838344 93.7627941,33.8174103 C94.176804,32.0878178 93.6707919,30.4964191 91.52809,29.9277265 C89.8413831,29.4802247 88.1181673,29.5529392 86.3986025,29.579348 C86.375967,29.5797097 86.3540617,29.6115449 86.3328866,29.6278243 L86.3328866,36.1525952 Z M78.6773547,41.6745571 L78.6773547,11.9864152 L79.1614615,11.9864152 C82.8251204,11.9864152 86.4884142,11.9788182 90.1517079,11.9903946 C91.4820889,11.9947358 92.8033426,12.1101384 94.077135,12.533402 C96.841947,13.4519201 98.5728296,15.6445702 98.7418653,18.5683448 C98.8013747,19.598648 98.7674215,20.652104 98.6166401,21.671916 C98.3829837,23.2517383 97.5173599,24.5081438 96.2523297,25.4935882 C96.1530258,25.5706439 96.0573727,25.6520407 95.9193694,25.7645493 C96.4060318,25.921193 96.8518043,26.0402132 97.2789574,26.2055393 C99.702047,27.1435927 101.128811,28.8728234 101.483312,31.4424313 C101.743254,33.3254116 101.612918,35.1638949 100.770295,36.8999991 C99.5892348,39.3346692 97.5418208,40.6927303 94.9515209,41.2585288 C93.8069698,41.5085075 92.6153223,41.6427219 91.4430245,41.6564689 C87.3715622,41.7034982 83.2990047,41.6745571 79.2271774,41.6745571 L78.6773547,41.6745571 Z" id="Fill-6" fill="#000000"></path><g id="Group-10" transform="translate(102.645291, 0.000000)"><mask id="mask-4" fill="white"><use xlink:href="#path-3"></use></mask><g id="Clip-9"></g><path d="M19.1593642,31.8324014 C17.9717536,28.3910082 16.8049907,25.0103434 15.596179,21.5078626 C14.3863073,25.0160929 13.2167176,28.4068192 12.0354673,31.8324014 L19.1593642,31.8324014 Z M15.0894746,1.88937047 C14.7481381,7.16231636 14.4099818,12.3907042 14.0714721,17.619092 C14.1082206,17.6349029 14.1446157,17.6503545 14.1813641,17.6661654 C17.3802451,13.5456209 20.5791261,9.42471702 23.7942612,5.2833308 C20.8858342,4.14925575 18.0067353,3.02667957 15.0894746,1.88937047 L15.0894746,1.88937047 Z M14.0449709,12.1499468 L14.0449709,0.328759588 C17.9099173,1.83618824 21.7052537,3.31702578 25.5899878,4.83271923 C23.4433842,7.28269505 21.3448363,9.6773326 19.2939907,12.0184286 C19.4272038,12.2016917 19.5908051,12.3490208 19.6600617,12.5333619 C23.2497482,22.0914298 26.8313077,31.6523723 30.4125138,41.2136742 C30.4566826,41.3315376 30.4888374,41.4540723 30.5397199,41.6172124 C30.3701117,41.6258365 30.2361919,41.6384134 30.1022721,41.6384134 C27.6295262,41.6394914 25.1567802,41.6319453 22.6840343,41.6474351 C22.3483514,41.6495529 22.1921705,41.5611554 22.083692,41.2240951 C21.6197429,39.7802695 21.1172787,38.3497395 20.6434358,36.909148 C20.5586317,36.6515016 20.4423795,36.5631041 20.1671195,36.5638228 C16.9456241,36.5753217 13.7241287,36.574603 10.5026333,36.5649008 C10.2326736,36.5641822 10.1132412,36.6425181 10.0256103,36.909148 C9.54364038,38.3766899 9.03905604,39.8370451 8.54153871,41.299197 C8.50479027,41.4066395 8.46238822,41.5115666 8.41963283,41.6258365 L0.123672633,41.6258365 C0.174908438,41.459103 0.211303527,41.3164453 0.262539332,41.179537 C3.83491166,31.6455449 7.4101108,22.1129901 10.9740027,12.5761233 C11.0923751,12.2588266 11.2252348,12.1280271 11.5725783,12.140604 C12.376097,12.1700698 13.1813825,12.1499468 14.0449709,12.1499468 L14.0449709,12.1499468 Z" id="Fill-8" fill="#000000" mask="url(#mask-4)"></path></g><path d="M167.302302,31.8012646 L174.502855,31.8012646 C173.313003,28.3675067 172.133152,24.9637712 170.953659,21.5600357 C170.919367,21.5600357 170.885075,21.5596739 170.850784,21.5596739 C169.67129,24.9641329 168.49144,28.3689536 167.302302,31.8012646 M186.012024,41.6532884 C185.847709,41.6623313 185.736261,41.6739062 185.624813,41.6739062 C183.082937,41.6749913 180.541418,41.6681187 177.999899,41.6833391 C177.676985,41.685481 177.56518,41.5632214 177.470878,41.2763817 C176.989007,39.8125222 176.477846,38.3591524 175.995261,36.8960164 C175.912389,36.6453481 175.801655,36.566856 175.54411,36.5675794 C172.274249,36.5762606 169.004387,36.5780692 165.734526,36.5654091 C165.443403,36.564324 165.341242,36.6869453 165.260157,36.9303793 C164.768642,38.4061754 164.264982,39.8776308 163.773824,41.3534269 C163.702383,41.567562 163.620225,41.6825873 163.361608,41.6815022 C160.719715,41.670289 158.078178,41.6742679 155.436642,41.6724593 C155.395206,41.6724593 155.35377,41.6569056 155.270541,41.6402667 C155.312691,41.4999214 155.34484,41.3646401 155.39342,41.2355079 C159.012986,31.6146198 162.635766,21.9948167 166.247831,12.3710349 C166.358207,12.0773225 166.49466,11.9825533 166.798999,11.9839838 C169.369452,11.9959367 171.939547,11.9948516 174.509642,11.9847236 C174.778975,11.9836384 174.911141,12.0657477 175.008301,12.3247354 C178.631439,21.9745607 182.261364,31.6218541 185.88986,41.2698708 C185.92951,41.3751298 185.9588,41.4847294 186.012024,41.6532884" id="Fill-11" fill="#000000"></path><path d="M40.9485262,42.9313835 L60.0513685,42.9313835 C57.1993958,39.2943299 54.3954338,35.7189213 51.5803648,32.129008 C50.5069339,33.1392603 49.449626,34.1125257 48.4166816,35.111537 C46.207836,37.2477167 43.7553545,39.1384044 41.9452834,41.6778147 C41.6393055,42.1064286 41.2903329,42.5038574 40.9485262,42.9313835 M51.3191729,18.68025 C54.2517603,14.7933529 57.1682248,10.9285755 60.0864807,7.06125986 C53.6956973,7.06125986 47.3368015,7.06125986 40.9779058,7.06017201 C41.7829789,8.6136254 48.1551314,15.7785847 51.3191729,18.68025 M57.4315665,26.478702 C61.3318898,29.5551489 65.1501653,32.5670499 68.9834888,35.5905547 L68.9834888,16.2710193 C65.1727374,19.2767557 61.3820502,22.2668997 57.5856303,25.2613951 C57.7826887,25.4815039 57.9421269,25.6599117 58.164982,25.9086673 C57.9188382,26.1001293 57.6927584,26.2756362 57.4315665,26.478702 M31.8662832,38.5690949 C31.124627,30.4751095 31.1393168,22.4427692 31.8146897,14.3469708 C27.8860616,18.2197257 24.0172675,22.033374 20.1563558,25.8394074 C24.0559626,30.0787686 27.9412379,34.3021747 31.8662832,38.5690949 M37.2090741,44.5646127 C37.328384,44.4659807 37.4595174,44.3785899 37.5655707,44.2672663 C41.5203538,40.1196473 45.4729873,35.9698526 49.4256207,31.8204205 C49.6441764,31.5908836 49.8372936,31.3287111 50.0841541,31.1368865 C51.9200219,29.7085361 53.2782918,27.8026185 54.9364487,26.1973108 C55.0385608,26.0983163 55.1259831,25.9833665 55.2245123,25.8709551 C49.3747438,20.0687124 43.5350074,14.2769856 37.5949503,8.3859016 C37.2538601,8.77390233 36.9399998,9.16951803 36.5874444,9.52560842 C35.1593083,10.9688261 33.7150493,12.3960886 32.2908545,13.8432951 C32.170828,13.9647719 32.0830474,14.1972097 32.0998869,14.3661895 C32.5326989,18.6925789 32.6276452,23.0320226 32.6061479,27.3761803 C32.5882335,31.0542097 32.4502926,34.7264372 32.0558175,38.3848852 C32.0217802,38.7018129 32.1199511,38.8961759 32.3148598,39.109395 C33.8494073,40.7890392 35.3771475,42.4752106 36.9048876,44.1617446 C36.998759,44.2658159 37.0714915,44.3894684 37.154256,44.503693 C36.6501448,44.058036 36.1352849,43.6243455 35.6429972,43.1652717 C30.8967558,38.7387999 26.1490812,34.3137784 21.4132302,29.8757028 C20.0176984,28.5677415 18.6590702,27.2195296 17.1943888,25.8038708 C24.0161927,18.7690912 30.8182907,11.7542556 37.6691159,4.68937876 C38.2645906,5.64668897 39.1531449,5.2267779 39.9166567,5.24635925 C41.2462635,5.28044529 42.5783784,5.19704326 43.9094183,5.18000024 C46.028692,5.15244131 48.1483239,5.10965245 50.2672392,5.12597023 C54.6344119,5.15933104 59.0012263,5.22750313 63.3680407,5.28225838 C63.4662116,5.28334623 63.5640242,5.2971257 63.771473,5.31344348 C59.802,10.0035383 55.6107468,14.379969 51.4495897,18.8292857 C53.4613769,20.9350056 55.448084,23.0142544 57.467037,25.1275892 C61.8005306,20.8650204 66.1021365,16.5864965 70.702913,12.4896439 C70.924335,21.4727674 70.9049874,30.3655991 70.7021964,39.3668534 C66.0727569,35.2424419 61.7460708,30.9312824 57.3488019,26.614321 C55.4946614,28.3940477 53.6516279,30.1625333 51.8146852,31.9255796 C55.8174789,36.1279538 59.8166898,40.3263393 63.8155424,44.5243622 C63.7897457,44.5925342 63.7639489,44.6607063 63.7377939,44.7288784 C63.1215385,44.7288784 62.5056414,44.7263401 61.889386,44.729241 C56.0460667,44.7575252 50.2027474,44.7981384 44.3594281,44.8095035 C42.5131699,44.8130057 40.6669118,44.7361308 38.8206536,44.70277 C38.3430557,44.6940671 37.8643829,44.7154616 37.3864267,44.7078466 C37.3265926,44.7071214 37.2681916,44.6146539 37.2090741,44.5646127" id="Fill-13" fill="#000000"></path><polygon id="Fill-15" fill="#000000" points="135.470942 11.9839679 143.489185 11.9839679 143.489185 34.8523708 152.665331 34.8523708 152.665331 41.6833667 135.470942 41.6833667"></polygon><mask id="mask-6" fill="white"><use xlink:href="#path-5"></use></mask><g id="Clip-18"></g><polygon id="Fill-17" fill="#000000" mask="url(#mask-6)" points="102.645291 45.8517034 133.386774 45.8517034 133.386774 43.7675351 102.645291 43.7675351"></polygon><path d="M11.9839679,15.9687602 C10.6730906,13.4250861 8.11928809,12.6899596 6.09566093,13.152152 C3.81553343,13.6732406 2.19252471,15.5712101 2.0928368,17.812502 C1.9961358,19.9902289 3.45971854,21.9995268 5.63866469,22.7206474 C7.43230028,23.3142791 10.2765792,23.0011231 11.892494,20.2175543 C11.7226139,22.0605778 8.68119933,23.9793765 6.01576126,23.9679359 C2.83396225,23.9538787 0.214447825,21.5244059 0.0124584721,18.3763264 C-0.183183711,15.3252103 1.94162481,12.6087976 5.24103315,12.0593381 C8.29476868,11.5511779 11.375013,13.6965837 11.9839679,15.9687602" id="Fill-19" fill="#000000" mask="url(#mask-6)"></path><path d="M15.0268675,31.4390451 C14.4352104,33.0927821 12.4607876,34.1447366 10.6273949,33.8035234 C8.57966607,33.4225259 7.21587794,31.7587532 7.29811455,29.742298 C7.37625793,27.8344432 8.91717108,26.3040017 10.9924361,26.0735394 C12.7677794,25.8760515 14.6528956,27.0667135 15.1102204,28.6745731 C14.0515636,27.0398322 12.7101022,26.4179784 11.1368153,26.8323087 C9.70530294,27.2093636 8.6819967,28.4692001 8.65185568,29.8921164 C8.62134254,31.3139574 9.58548308,32.6064099 11.0043437,33.045471 C12.5400473,33.5207322 13.9276505,32.9608845 15.0268675,31.4390451" id="Fill-20" fill="#000000" mask="url(#mask-6)"></path><path d="M26.5731463,21.7280269 C27.158693,22.2547326 27.5507924,22.3110759 27.8964818,21.9721813 C28.1840503,21.6900473 28.19446,21.0719402 27.9168675,20.7706078 C27.5889613,20.4154362 27.1712714,20.4651018 26.6347371,20.9225261 C26.8546424,20.1554223 27.4740207,19.7347255 28.277304,19.8077631 C29.0480569,19.8778792 29.656158,20.5110112 29.6973631,21.2864622 C29.7377008,22.0402106 29.173841,22.7530579 28.4260762,22.8945422 C27.6249616,23.0460432 26.9426913,22.6462143 26.5731463,21.7280269" id="Fill-21" fill="#000000" mask="url(#mask-6)"></path></g></g></g></svg>